<?xml version="1.0" encoding="utf-8"?>
<!-- Generator: Adobe Illustrator 20.1.0, SVG Export Plug-In . SVG Version: 6.00 Build 0)  -->
<svg version="1.1" id="Layer_1" xmlns="http://www.w3.org/2000/svg" xmlns:xlink="http://www.w3.org/1999/xlink" x="0px" y="0px"
	 viewBox="0 0 361.7 61" style="enable-background:new 0 0 361.7 61;" xml:space="preserve">
<style type="text/css">
	.st0{fill:#93278F;}
	.st1{fill:#666666;}
	.st2{opacity:0.8;fill:#93278F;enable-background:new    ;}
	.st3{opacity:0.4;fill:#93278F;enable-background:new    ;}
	.st4{opacity:0.9;fill:#93278F;enable-background:new    ;}
	.st5{fill:#14AF7C;}
	.st6{fill:#302879;}
	.st7{fill:#AF231F;}
	.st8{fill:#666666;stroke:#666666;stroke-width:0.75;stroke-miterlimit:10;}
</style>
<g>
	<g>
		<g>
			<path class="st0" d="M291,22.3v1.9h-0.3v-4.3h1.1c0.5,0,0.9,0.1,1.1,0.3c0.2,0.2,0.4,0.5,0.4,0.8c0,0.2,0,0.3-0.1,0.4
				s-0.1,0.3-0.2,0.4s-0.2,0.2-0.4,0.2c-0.1,0.1-0.3,0.1-0.5,0.1l0.1,0.1l1.5,1.8h-0.3h-0.1c0,0,0,0-0.1-0.1l-1.4-1.7l-0.1-0.1
				c0,0-0.1,0-0.2,0H291V22.3z M291,22h0.7c0.2,0,0.4,0,0.5-0.1c0.1,0,0.3-0.1,0.4-0.2s0.2-0.2,0.2-0.3c0.1-0.1,0.1-0.3,0.1-0.4
				c0-0.3-0.1-0.5-0.3-0.7s-0.5-0.2-0.9-0.2H291V22z"/>
		</g>
		<path class="st0" d="M292,18.4c-2,0-3.7,1.7-3.7,3.7s1.7,3.7,3.7,3.7s3.7-1.7,3.7-3.7S294.1,18.4,292,18.4z M292,25.5
			c-1.9,0-3.4-1.5-3.4-3.4s1.5-3.4,3.4-3.4s3.4,1.5,3.4,3.4S293.9,25.5,292,25.5z"/>
	</g>
	<g>
		<g>
			<g>
				<path class="st1" d="M223,58.1c-0.2,0.3-0.5,0.5-1,0.8c-0.5,0.2-1.1,0.4-1.9,0.4c-1,0-1.8-0.3-2.4-1c-0.6-0.7-0.9-1.5-0.9-2.6
					v-1.6c0-1,0.3-1.9,0.9-2.6c0.6-0.7,1.4-1,2.3-1c0.9,0,1.6,0.2,2.1,0.7s0.8,1.1,0.9,1.8l0,0h-0.6c-0.1-0.6-0.3-1-0.7-1.4
					s-0.9-0.5-1.7-0.5s-1.4,0.3-1.8,0.8c-0.5,0.6-0.7,1.3-0.7,2.1v1.6c0,0.9,0.2,1.6,0.7,2.2s1.1,0.9,1.9,0.9c0.6,0,1-0.1,1.4-0.2
					c0.4-0.2,0.7-0.3,0.8-0.5v-2.2H220v-0.6h3V58.1z"/>
				<path class="st1" d="M227.8,53.4h-0.5c-0.4,0-0.8,0.1-1.1,0.4c-0.3,0.2-0.5,0.6-0.6,1v4.4h-0.7v-6.3h0.6l0.1,1V54
					c0.2-0.4,0.4-0.7,0.7-0.9s0.7-0.3,1.1-0.3c0.1,0,0.2,0,0.3,0s0.2,0,0.2,0L227.8,53.4z"/>
				<path class="st1" d="M228.5,55.9c0-0.9,0.3-1.7,0.8-2.3s1.2-0.9,2-0.9s1.5,0.3,2,0.9c0.5,0.6,0.8,1.4,0.8,2.3v0.2
					c0,0.9-0.3,1.7-0.8,2.3s-1.2,0.9-2,0.9s-1.5-0.3-2-0.9c-0.5-0.6-0.8-1.4-0.8-2.3V55.9z M229.2,56.1c0,0.7,0.2,1.3,0.6,1.8
					s0.9,0.7,1.5,0.7s1.2-0.2,1.5-0.7s0.6-1.1,0.6-1.8v-0.2c0-0.7-0.2-1.3-0.6-1.8c-0.4-0.5-0.9-0.8-1.5-0.8s-1.2,0.3-1.5,0.8
					c-0.4,0.5-0.6,1.1-0.6,1.8V56.1z"/>
				<path class="st1" d="M236.9,57.1l0.2,1.1l0,0l0.3-1.1l1.3-4.3h0.6l1.3,4.3l0.3,1.2l0,0l0.3-1.2l1.1-4.3h0.7l-1.8,6.3h-0.6
					l-1.4-4.3l-0.3-1.1l0,0l-0.3,1.1l-1.4,4.3h-0.6l-1.8-6.3h0.7L236.9,57.1z"/>
				<path class="st1" d="M249.1,56.8l0.3,1.3l0,0l0.3-1.3l1.8-6.1h0.7l1.8,6.1l0.3,1.3l0,0l0.3-1.3l1.5-6.1h0.7l-2.2,8.5H254
					l-1.9-6.5l-0.2-0.9l0,0l-0.2,0.9l-1.9,6.5H249l-2.2-8.5h0.7L249.1,56.8z"/>
				<path class="st1" d="M258.9,51h-0.7v-1h0.7V51z M258.9,59.2h-0.7v-6.3h0.7V59.2z"/>
				<path class="st1" d="M261.9,51.2v1.6h1.4v0.6h-1.4v4.1c0,0.4,0.1,0.7,0.2,0.9s0.3,0.3,0.6,0.3c0.1,0,0.2,0,0.3,0
					c0.1,0,0.2,0,0.4,0l0.1,0.5c-0.1,0.1-0.3,0.1-0.4,0.1s-0.3,0-0.5,0c-0.4,0-0.8-0.1-1-0.4c-0.2-0.3-0.4-0.7-0.4-1.3v-4.1h-1.1
					v-0.6h1.1v-1.6h0.7V51.2z"/>
				<path class="st1" d="M265.5,53.9c0.2-0.4,0.5-0.7,0.8-0.9s0.8-0.3,1.2-0.3c0.7,0,1.2,0.2,1.5,0.6c0.4,0.4,0.5,1.1,0.5,1.9v3.9
					h-0.7v-3.9c0-0.7-0.1-1.2-0.4-1.5s-0.6-0.4-1.1-0.4s-0.9,0.1-1.2,0.4c-0.3,0.3-0.6,0.6-0.7,1v4.5h-0.7v-9.1h0.7v3.8H265.5z"/>
				<path class="st1" d="M280.5,50.7v5.8c0,0.9-0.3,1.6-0.8,2.1c-0.6,0.5-1.3,0.7-2.2,0.7c-0.9,0-1.6-0.2-2.2-0.7s-0.8-1.2-0.8-2.1
					v-5.8h0.7v5.7c0,0.7,0.2,1.3,0.6,1.7s1,0.6,1.7,0.6s1.3-0.2,1.7-0.6c0.4-0.4,0.7-1,0.7-1.7v-5.7H280.5z"/>
				<path class="st1" d="M286.1,57.5c0-0.3-0.1-0.6-0.4-0.8c-0.2-0.2-0.7-0.4-1.3-0.5c-0.8-0.2-1.3-0.4-1.7-0.6s-0.5-0.6-0.5-1.1
					s0.2-0.9,0.6-1.2s0.9-0.5,1.6-0.5s1.3,0.2,1.7,0.5c0.4,0.4,0.6,0.8,0.6,1.3l0,0h-0.6c0-0.3-0.1-0.6-0.4-0.9s-0.7-0.4-1.2-0.4
					s-0.9,0.1-1.1,0.3c-0.3,0.2-0.4,0.5-0.4,0.8s0.1,0.5,0.3,0.7s0.7,0.4,1.3,0.5c0.8,0.2,1.3,0.4,1.7,0.7c0.4,0.3,0.6,0.7,0.6,1.2
					s-0.2,1-0.6,1.3s-1,0.5-1.7,0.5c-0.8,0-1.4-0.2-1.8-0.5c-0.4-0.4-0.6-0.8-0.6-1.3l0,0h0.6c0,0.5,0.2,0.8,0.6,1s0.7,0.3,1.2,0.3
					s0.9-0.1,1.2-0.3C286,58.1,286.1,57.9,286.1,57.5z"/>
			</g>
		</g>
		<g>
			<g>
				<path class="st1" d="M8.9,7.8h-3v7.9H5.2V7.8H2.3V7.2h6.5L8.9,7.8L8.9,7.8z"/>
				<path class="st1" d="M10.7,10.5c0.2-0.4,0.5-0.7,0.8-0.9s0.8-0.3,1.2-0.3c0.7,0,1.2,0.2,1.5,0.6c0.4,0.4,0.5,1.1,0.5,1.9v3.9H14
					v-3.9c0-0.7-0.1-1.2-0.4-1.5C13.3,10,13,9.9,12.5,9.9s-0.9,0.1-1.2,0.4c-0.3,0.3-0.6,0.6-0.7,1v4.5H9.9V6.6h0.7L10.7,10.5
					L10.7,10.5z"/>
				<path class="st1" d="M19.1,15.8c-0.8,0-1.4-0.3-2-0.9c-0.5-0.6-0.8-1.3-0.8-2.2v-0.3c0-0.9,0.3-1.6,0.8-2.2
					c0.5-0.6,1.1-0.9,1.9-0.9s1.4,0.2,1.8,0.7s0.7,1.1,0.7,2v0.6H17v0.2c0,0.7,0.2,1.3,0.6,1.8s0.9,0.7,1.5,0.7
					c0.4,0,0.8-0.1,1.1-0.2c0.3-0.1,0.6-0.3,0.8-0.5l0.3,0.5c-0.2,0.2-0.5,0.4-0.9,0.6C20,15.8,19.6,15.8,19.1,15.8z M19,9.9
					c-0.5,0-0.9,0.2-1.3,0.6c-0.3,0.4-0.6,0.9-0.6,1.5l0,0h3.7v-0.2c0-0.5-0.2-1-0.5-1.4C20,10.1,19.5,9.9,19,9.9z"/>
			</g>
		</g>
		<g>
			<g>
				<path class="st0" d="M151.7,19.1c0.1,0,0.2,0.1,0.3,0.3l18,24c0-0.4-0.1-0.8-0.1-1.1V19.1h1.8v27.6h-1c-0.3,0-0.5-0.1-0.7-0.4
					l-18-24c0,0.4,0.1,0.8,0.1,1.1v23.3h-1.7V19.1h1C151.5,19.1,151.6,19.1,151.7,19.1z"/>
				<path class="st0" d="M185.3,27c1.1,0,2.1,0.2,3,0.6s1.7,0.9,2.4,1.7s1.2,1.6,1.6,2.7c0.4,1.1,0.6,2.3,0.6,3.6
					c0,0.3,0,0.5-0.1,0.6s-0.2,0.2-0.4,0.2h-14v0.4c0,1.5,0.2,2.7,0.5,3.8s0.8,2,1.4,2.8c0.6,0.7,1.4,1.3,2.3,1.7
					c0.9,0.4,1.9,0.6,3,0.6c1,0,1.8-0.1,2.5-0.3s1.3-0.5,1.8-0.7s0.9-0.5,1.2-0.7s0.5-0.3,0.6-0.3c0.2,0,0.3,0.1,0.4,0.2l0.5,0.6
					c-0.3,0.4-0.7,0.8-1.2,1.1s-1.1,0.6-1.7,0.9c-0.6,0.2-1.3,0.4-2,0.6s-1.4,0.2-2.2,0.2c-1.3,0-2.5-0.2-3.6-0.7s-2-1.1-2.8-2
					s-1.4-2-1.8-3.3c-0.4-1.3-0.6-2.8-0.6-4.4c0-1.4,0.2-2.7,0.6-3.9c0.4-1.2,1-2.2,1.7-3c0.7-0.9,1.7-1.5,2.8-2
					C182.7,27.2,183.9,27,185.3,27z M185.3,28.3c-1,0-1.9,0.2-2.7,0.5s-1.5,0.8-2.1,1.3s-1,1.3-1.4,2.1c-0.4,0.8-0.6,1.7-0.7,2.8
					h12.8c0-1-0.1-2-0.4-2.8c-0.3-0.8-0.7-1.5-1.2-2.1s-1.1-1-1.9-1.3C187,28.5,186.2,28.3,185.3,28.3z"/>
				<path class="st0" d="M202.2,47c-1.3,0-2.3-0.4-3.1-1.1c-0.7-0.7-1.1-1.9-1.1-3.4V29.3h-2.8c-0.1,0-0.3,0-0.4-0.1
					c-0.1-0.1-0.1-0.2-0.1-0.3v-0.7L198,28l0.5-7c0-0.1,0.1-0.2,0.1-0.3c0.1-0.1,0.2-0.1,0.3-0.1h0.9V28h6.1v1.4h-6.1v13.2
					c0,0.5,0.1,1,0.2,1.4c0.1,0.4,0.3,0.7,0.6,0.9c0.2,0.2,0.5,0.4,0.8,0.5s0.7,0.2,1.1,0.2c0.5,0,0.9-0.1,1.2-0.2
					c0.3-0.1,0.6-0.3,0.9-0.4c0.2-0.2,0.4-0.3,0.6-0.4s0.3-0.2,0.4-0.2c0.1,0,0.2,0.1,0.3,0.2l0.5,0.8c-0.5,0.5-1.1,1-1.9,1.3
					S203,47,202.2,47z"/>
				<path class="st0" d="M207.2,27.3h1.4c0.2,0,0.3,0,0.4,0.1s0.2,0.2,0.2,0.3l4.9,15.3c0.1,0.3,0.2,0.6,0.2,0.9
					c0.1,0.3,0.1,0.5,0.2,0.8c0.1-0.3,0.1-0.5,0.2-0.8c0.1-0.3,0.2-0.6,0.3-0.9l5.2-15.5c0.1-0.3,0.3-0.4,0.5-0.4h0.8
					c0.3,0,0.5,0.1,0.6,0.4l5.1,15.5c0.2,0.6,0.4,1.2,0.5,1.7c0.1-0.3,0.1-0.6,0.2-0.8c0.1-0.3,0.1-0.6,0.2-0.9l4.9-15.3
					c0.1-0.3,0.3-0.5,0.7-0.5h1.4l-6.5,19.4h-1.4c-0.2,0-0.4-0.1-0.4-0.4l-5.4-15.7c-0.1-0.2-0.1-0.4-0.2-0.6
					c-0.1-0.2-0.1-0.4-0.1-0.6c0,0.2-0.1,0.4-0.1,0.6s-0.1,0.4-0.2,0.6l-5.4,15.8c-0.1,0.3-0.2,0.4-0.5,0.4h-1.3L207.2,27.3z"/>
				<path class="st0" d="M245.1,27c1.4,0,2.6,0.2,3.7,0.7c1.1,0.5,2,1.1,2.8,2s1.3,1.9,1.7,3.2c0.4,1.2,0.6,2.6,0.6,4.1
					s-0.2,2.9-0.6,4.1c-0.4,1.2-1,2.3-1.7,3.1c-0.8,0.9-1.7,1.5-2.8,2s-2.3,0.7-3.7,0.7s-2.6-0.2-3.7-0.7c-1.1-0.5-2-1.1-2.8-2
					s-1.3-1.9-1.7-3.1c-0.4-1.2-0.6-2.6-0.6-4.1s0.2-2.9,0.6-4.1c0.4-1.2,1-2.3,1.7-3.2c0.8-0.9,1.7-1.5,2.8-2
					C242.5,27.2,243.7,27,245.1,27z M245.1,45.5c1.2,0,2.2-0.2,3-0.6c0.9-0.4,1.6-1,2.2-1.7c0.6-0.7,1-1.6,1.3-2.7
					c0.3-1,0.4-2.2,0.4-3.5s-0.1-2.5-0.4-3.5c-0.3-1.1-0.7-2-1.3-2.7s-1.3-1.3-2.2-1.7c-0.9-0.4-1.9-0.6-3-0.6c-1.2,0-2.2,0.2-3,0.6
					c-0.9,0.4-1.6,1-2.2,1.7c-0.6,0.7-1,1.7-1.3,2.7s-0.4,2.2-0.4,3.5s0.1,2.5,0.4,3.5c0.3,1,0.7,1.9,1.3,2.7
					c0.6,0.7,1.3,1.3,2.2,1.7C242.9,45.3,243.9,45.5,245.1,45.5z"/>
				<path class="st0" d="M257.9,46.7V27.3h1c0.2,0,0.4,0,0.5,0.1s0.2,0.2,0.2,0.5l0.2,4.1c0.6-1.6,1.5-2.8,2.5-3.7
					c1-0.9,2.3-1.3,3.8-1.3c0.6,0,1.1,0.1,1.6,0.2s1,0.3,1.4,0.5l-0.3,1.3c0,0.2-0.2,0.3-0.4,0.3c-0.1,0-0.2,0-0.3-0.1
					c-0.1-0.1-0.3-0.1-0.5-0.2s-0.5-0.1-0.8-0.2s-0.7-0.1-1.1-0.1c-1.5,0-2.7,0.5-3.6,1.4s-1.7,2.2-2.3,3.9v12.6h-1.9V46.7z"/>
				<path class="st0" d="M274.4,18.3v17.3h0.9c0.2,0,0.4,0,0.5-0.1c0.2-0.1,0.3-0.2,0.5-0.4l7.8-7.4c0.1-0.1,0.3-0.3,0.4-0.4
					s0.3-0.1,0.6-0.1h1.6l-8.6,8.1c-0.1,0.1-0.3,0.3-0.4,0.4c-0.1,0.1-0.2,0.2-0.4,0.3c0.2,0.1,0.4,0.2,0.5,0.4
					c0.1,0.1,0.3,0.3,0.4,0.5l9,9.8h-1.6c-0.2,0-0.3,0-0.5-0.1c-0.1-0.1-0.3-0.2-0.4-0.3l-8.2-8.8c-0.2-0.2-0.4-0.4-0.6-0.5
					s-0.5-0.1-0.9-0.1h-0.9v9.8h-1.9V18.3H274.4z"/>
			</g>
		</g>
		<g>
			<g>
				<path class="st2" d="M140.9,24.3c0,0-14.8-4.8-15-1.7C125.6,25.6,140.9,24.3,140.9,24.3z"/>
				<path class="st2" d="M113.8,24.3c0,0,14.8-4.8,15-1.7C129.1,25.6,113.8,24.3,113.8,24.3z"/>
				<path class="st3" d="M130.5,26.7c0,0-3.5-5.1-4.3-4.2C125.3,23.4,130.5,26.7,130.5,26.7z"/>
				<path class="st3" d="M124.2,26.7c0,0,3.5-5.1,4.3-4.2S124.2,26.7,124.2,26.7z"/>
				<path class="st4" d="M127.4,0.5c0,0-4.7,23.6,0,23.5C132.1,23.8,127.4,0.5,127.4,0.5z"/>
				<path class="st2" d="M142.4,12.8c0,0-18.6,7.7-16.3,10.9C128.4,27,142.4,12.8,142.4,12.8z"/>
				<path class="st2" d="M112.3,12.8c0,0,18.6,7.7,16.3,10.9C126.3,27,112.3,12.8,112.3,12.8z"/>
			</g>
			<g>
				<path class="st5" d="M23.8,41.9c0.1,0,0.2,0,0.3,0.1l0.8,0.8c-0.6,0.6-1.2,1.2-1.9,1.6c-0.7,0.5-1.4,0.9-2.2,1.3
					c-0.8,0.3-1.7,0.6-2.6,0.8c-1,0.2-2,0.3-3.2,0.3c-1.9,0-3.7-0.3-5.3-1s-3-1.6-4.1-2.8c-1.2-1.2-2-2.7-2.7-4.4
					c-0.6-1.8-1-3.7-1-5.8c0-2.1,0.3-4,1-5.7s1.6-3.2,2.8-4.5c1.2-1.2,2.6-2.2,4.3-2.9c1.7-0.7,3.5-1,5.5-1c1,0,1.9,0.1,2.8,0.2
					c0.8,0.1,1.6,0.4,2.3,0.6c0.7,0.3,1.4,0.6,2,1s1.3,0.9,1.9,1.5L24,22.9c-0.1,0.2-0.3,0.2-0.5,0.2c-0.1,0-0.3-0.1-0.4-0.2
					c-0.2-0.1-0.4-0.3-0.7-0.5c-0.3-0.2-0.6-0.4-1-0.7C21,21.5,20.5,21.2,20,21s-1.2-0.4-1.9-0.5c-0.7-0.1-1.5-0.2-2.5-0.2
					c-1.7,0-3.2,0.3-4.6,0.9s-2.6,1.4-3.6,2.5S5.6,26.1,5,27.6s-0.9,3.2-0.9,5.2s0.3,3.7,0.8,5.2c0.6,1.5,1.3,2.8,2.3,3.9
					c1,1.1,2.2,1.9,3.5,2.5c1.4,0.6,2.8,0.8,4.4,0.8c1,0,1.9-0.1,2.6-0.2c0.8-0.1,1.5-0.3,2.1-0.6s1.3-0.6,1.8-1s1.1-0.8,1.7-1.3
					c0.1-0.1,0.1-0.1,0.2-0.1C23.7,42,23.7,41.9,23.8,41.9z"/>
				<path class="st5" d="M40.7,46.6c-0.4,0-0.6-0.2-0.7-0.5l-0.3-2.6c-0.5,0.5-1.1,1-1.6,1.4S37,45.7,36.4,46
					c-0.6,0.3-1.2,0.5-1.9,0.7c-0.7,0.1-1.4,0.2-2.2,0.2c-0.7,0-1.3-0.1-1.9-0.3s-1.2-0.5-1.7-0.9s-0.9-0.9-1.2-1.5
					c-0.3-0.6-0.4-1.4-0.4-2.3c0-0.8,0.2-1.6,0.7-2.3s1.2-1.3,2.2-1.8s2.3-0.9,3.8-1.2c1.6-0.3,3.5-0.5,5.7-0.6v-2
					c0-1.8-0.4-3.2-1.2-4.1c-0.8-1-1.9-1.5-3.5-1.5c-0.9,0-1.7,0.1-2.4,0.4s-1.2,0.6-1.7,0.9c-0.4,0.3-0.8,0.6-1.1,0.9
					c-0.3,0.2-0.5,0.4-0.7,0.4c-0.3,0-0.5-0.1-0.6-0.3L28,30.1c1-1,2.1-1.8,3.2-2.3c1.1-0.5,2.4-0.8,3.8-0.8c1,0,1.9,0.2,2.7,0.5
					s1.4,0.8,1.9,1.4s0.9,1.4,1.2,2.2c0.3,0.9,0.4,1.9,0.4,2.9v12.7h-0.5V46.6z M32.9,45.5c0.7,0,1.4-0.1,2.1-0.2
					c0.6-0.2,1.2-0.4,1.8-0.7c0.5-0.3,1-0.6,1.5-1s0.9-0.8,1.4-1.3v-5.1c-1.8,0-3.4,0.2-4.8,0.4c-1.3,0.2-2.4,0.5-3.3,0.9
					c-0.9,0.4-1.5,0.9-1.9,1.4s-0.6,1.2-0.6,1.9c0,0.6,0.1,1.2,0.3,1.7c0.2,0.5,0.5,0.9,0.9,1.2c0.3,0.3,0.8,0.5,1.2,0.7
					C31.9,45.5,32.4,45.5,32.9,45.5z"/>
				<path class="st5" d="M45.4,46.6V27.1h1c0.3,0,0.5,0.2,0.6,0.5l0.2,2.9c0.9-1.1,1.9-2,3.1-2.7c1.2-0.7,2.5-1,3.9-1
					c1.1,0,2,0.2,2.8,0.5s1.5,0.8,2,1.5s1,1.4,1.2,2.3c0.3,0.9,0.4,1.9,0.4,3v12.4h-1.9V34.2c0-1.8-0.4-3.3-1.3-4.3
					c-0.8-1-2.1-1.6-3.8-1.6c-1.3,0-2.5,0.3-3.6,1s-2.1,1.6-2.9,2.7v14.6C47.1,46.6,45.4,46.6,45.4,46.6z"/>
				<path class="st5" d="M64.6,46.6V27.1h1c0.3,0,0.5,0.2,0.6,0.5l0.2,2.9c0.9-1.1,1.9-2,3.1-2.7s2.5-1,3.9-1c1.1,0,2,0.2,2.8,0.5
					s1.5,0.8,2,1.5s0.9,1.4,1.2,2.3c0.3,0.9,0.4,1.9,0.4,3v12.4H78V34.2c0-1.8-0.4-3.3-1.2-4.3c-0.8-1-2.1-1.6-3.8-1.6
					c-1.3,0-2.5,0.3-3.6,1s-2.1,1.6-2.9,2.7v14.6C66.5,46.6,64.6,46.6,64.6,46.6z"/>
				<path class="st5" d="M96.1,46.6c-0.4,0-0.6-0.2-0.7-0.5l-0.2-2.6c-0.5,0.5-1.1,1-1.6,1.4S92.5,45.7,92,46
					c-0.6,0.3-1.2,0.5-1.9,0.7c-0.7,0.1-1.4,0.2-2.2,0.2c-0.7,0-1.3-0.1-1.9-0.3s-1.2-0.5-1.7-0.9s-0.9-0.9-1.2-1.5
					c-0.3-0.6-0.4-1.4-0.4-2.3c0-0.8,0.2-1.6,0.7-2.3s1.2-1.3,2.2-1.8s2.3-0.9,3.8-1.2c1.6-0.3,3.5-0.5,5.6-0.6v-2
					c0-1.8-0.4-3.2-1.2-4.1c-0.8-1-1.9-1.5-3.4-1.5c-0.9,0-1.7,0.1-2.4,0.4c-0.7,0.3-1.2,0.6-1.7,0.9s-0.8,0.6-1.1,0.9
					c-0.3,0.2-0.5,0.4-0.7,0.4c-0.3,0-0.5-0.1-0.6-0.3l-0.3-0.6c1-1,2.1-1.8,3.2-2.3s2.4-0.8,3.8-0.8c1,0,1.9,0.2,2.7,0.5
					c0.8,0.3,1.4,0.8,2,1.4c0.5,0.6,0.9,1.4,1.2,2.2c0.3,0.9,0.4,1.9,0.4,2.9v12.7h-0.8V46.6z M88.3,45.5c0.8,0,1.5-0.1,2.1-0.2
					c0.6-0.2,1.2-0.4,1.8-0.7c0.5-0.3,1-0.6,1.5-1s0.9-0.8,1.4-1.3v-5.1c-1.9,0-3.4,0.2-4.8,0.4c-1.3,0.2-2.4,0.5-3.3,0.9
					s-1.5,0.9-1.9,1.4s-0.6,1.2-0.6,1.9c0,0.6,0.1,1.2,0.3,1.7c0.2,0.5,0.5,0.9,0.8,1.2c0.4,0.3,0.8,0.5,1.2,0.7
					C87.3,45.5,87.8,45.5,88.3,45.5z"/>
				<path class="st5" d="M99.7,45.1c0-0.2,0.1-0.5,0.1-0.7c0.1-0.2,0.2-0.4,0.4-0.6c0.2-0.2,0.4-0.3,0.6-0.4
					c0.2-0.1,0.4-0.1,0.7-0.1c0.2,0,0.5,0.1,0.7,0.1c0.2,0.1,0.4,0.2,0.6,0.4s0.3,0.4,0.4,0.6c0.1,0.2,0.1,0.5,0.1,0.7
					c0,0.3-0.1,0.5-0.1,0.7c-0.1,0.2-0.2,0.4-0.4,0.6c-0.2,0.2-0.4,0.3-0.6,0.4c-0.2,0.1-0.5,0.2-0.7,0.2c-0.5,0-0.9-0.2-1.3-0.5
					C99.9,46,99.7,45.6,99.7,45.1z"/>
				<path class="st5" d="M106.8,46.6V18.2h1.9v12.4c0.9-1.1,1.9-2.1,3-2.7c1.1-0.7,2.4-1,3.8-1c2.4,0,4.2,0.8,5.6,2.5
					c1.3,1.7,2,4.1,2,7.4c0,1.4-0.2,2.7-0.5,4c-0.4,1.2-0.9,2.3-1.7,3.2c-0.7,0.9-1.6,1.6-2.7,2.1s-2.3,0.8-3.6,0.8
					c-1.4,0-2.5-0.3-3.5-0.8s-1.8-1.3-2.5-2.3l-0.1,2.4c0,0.3-0.2,0.5-0.5,0.5h-1.2V46.6z M114.9,28.3c-1.3,0-2.4,0.3-3.5,1
					c-1,0.7-2,1.6-2.8,2.8v10.2c0.7,1.1,1.6,1.9,2.5,2.4s1.9,0.7,3.1,0.7c1.1,0,2.1-0.2,3-0.6c0.9-0.4,1.6-1,2.2-1.8s1-1.7,1.3-2.7
					c0.3-1.1,0.5-2.2,0.5-3.5c0-2.9-0.5-5-1.6-6.4C118.4,29,116.9,28.3,114.9,28.3z"/>
				<path class="st5" d="M128.3,27.1v19.4h-1.9V27.1H128.3z"/>
				<path class="st5" d="M146.2,27.9c0,0.3-0.1,0.5-0.3,0.7l-12.2,16.5h11.9v1.5h-14.2v-0.7c0-0.2,0.1-0.5,0.3-0.7L144,28.6h-11.9
					v-1.5h14L146.2,27.9L146.2,27.9z"/>
			</g>
		</g>
	</g>
</g>
<g>
	<polygon class="st6" points="322.8,7.9 324,10.4 326.7,10.7 324.8,12.6 325.2,15.3 322.8,14 320.4,15.3 320.9,12.6 319,10.7 
		321.6,10.4 	"/>
	<polygon class="st6" points="331.3,7.9 332.5,10.4 335.1,10.7 333.2,12.6 333.7,15.3 331.3,14 328.9,15.3 329.3,12.6 327.4,10.7 
		330.1,10.4 	"/>
	<polygon class="st6" points="322.8,15.8 324,18.2 326.7,18.6 324.8,20.5 325.2,23.2 322.8,21.9 320.4,23.2 320.9,20.5 319,18.6 
		321.6,18.2 	"/>
	<polygon class="st6" points="331.3,15.8 332.5,18.2 335.1,18.6 333.2,20.5 333.7,23.2 331.3,21.9 328.9,23.2 329.3,20.5 
		327.4,18.6 330.1,18.2 	"/>
	<rect x="337.7" y="7.9" class="st7" width="22.3" height="3.6"/>
	<rect x="337.7" y="13.8" class="st7" width="22.3" height="3.6"/>
	<rect x="337.7" y="19.6" class="st7" width="22.3" height="3.6"/>
	<g>
		<path class="st1" d="M338.5,27.7v16.2c0,2.3-0.7,4.1-2.1,5.5c-1.4,1.4-3.3,2.2-5.7,2.4l-0.8,0c-2.6,0-4.7-0.7-6.3-2.1
			c-1.6-1.4-2.3-3.4-2.4-5.8V27.7h3.1v16.2c0,1.7,0.5,3.1,1.4,4c1,1,2.3,1.4,4.1,1.4c1.8,0,3.1-0.5,4.1-1.4c0.9-1,1.4-2.3,1.4-4
			V27.7H338.5z"/>
		<path class="st1" d="M350.6,40.9c-2.7-0.8-4.7-1.7-5.9-2.9s-1.8-2.5-1.8-4.2c0-1.9,0.8-3.4,2.3-4.7c1.5-1.2,3.5-1.8,5.9-1.8
			c1.6,0,3.1,0.3,4.4,1c1.3,0.6,2.3,1.5,3,2.6c0.7,1.1,1.1,2.3,1.1,3.7h-3.2c0-1.4-0.5-2.6-1.4-3.4s-2.2-1.2-3.9-1.2
			c-1.6,0-2.8,0.3-3.6,1c-0.9,0.7-1.3,1.6-1.3,2.9c0,1,0.4,1.8,1.2,2.5s2.2,1.3,4.2,1.8c2,0.6,3.5,1.2,4.7,1.8
			c1.1,0.7,2,1.5,2.5,2.4c0.5,0.9,0.8,2,0.8,3.2c0,1.9-0.8,3.5-2.3,4.7c-1.5,1.2-3.5,1.7-6.1,1.7c-1.6,0-3.2-0.3-4.6-0.9
			c-1.4-0.6-2.5-1.5-3.3-2.6s-1.2-2.3-1.2-3.7h3.2c0,1.4,0.5,2.6,1.6,3.4c1.1,0.8,2.5,1.3,4.3,1.3c1.7,0,2.9-0.3,3.8-1
			c0.9-0.7,1.3-1.6,1.3-2.8s-0.4-2.1-1.2-2.7C354.2,42.2,352.7,41.5,350.6,40.9z"/>
	</g>
</g>
<line class="st8" x1="307.3" y1="3.1" x2="307.3" y2="56.8"/>
</svg>
