<?xml version="1.0" encoding="utf-8"?>
<!-- Generator: Adobe Illustrator 19.1.0, SVG Export Plug-In . SVG Version: 6.00 Build 0)  -->
<svg version="1.1" id="Layer_1" xmlns="http://www.w3.org/2000/svg" xmlns:xlink="http://www.w3.org/1999/xlink" x="0px" y="0px"
	 viewBox="0 0 296.5 61" style="enable-background:new 0 0 296.5 61;" xml:space="preserve">
<style type="text/css">
	.st0{fill:#93278F;}
	.st1{fill:#666666;}
	.st2{opacity:0.8;fill:#93278F;}
	.st3{opacity:0.4;fill:#93278F;}
	.st4{opacity:0.9;fill:#93278F;}
	.st5{fill:#14AF7C;}
</style>
<g>
	<g>
		<path class="st0" d="M291,21.8v1.9h-0.3v-4.3h1.1c0.5,0,0.9,0.1,1.1,0.3c0.2,0.2,0.4,0.5,0.4,0.8c0,0.2,0,0.3-0.1,0.4
			c-0.1,0.1-0.1,0.3-0.2,0.4c-0.1,0.1-0.2,0.2-0.4,0.2c-0.1,0.1-0.3,0.1-0.5,0.1c0,0,0.1,0.1,0.1,0.1l1.5,1.8h-0.3c0,0-0.1,0-0.1,0
			c0,0,0,0-0.1-0.1l-1.4-1.7c0,0-0.1-0.1-0.1-0.1c0,0-0.1,0-0.2,0H291z M291,21.5h0.7c0.2,0,0.4,0,0.5-0.1c0.1,0,0.3-0.1,0.4-0.2
			s0.2-0.2,0.2-0.3c0.1-0.1,0.1-0.3,0.1-0.4c0-0.3-0.1-0.5-0.3-0.7s-0.5-0.2-0.9-0.2H291V21.5z"/>
	</g>
	<path class="st0" d="M292,17.9c-2,0-3.7,1.7-3.7,3.7s1.7,3.7,3.7,3.7s3.7-1.7,3.7-3.7S294.1,17.9,292,17.9z M292,25
		c-1.9,0-3.4-1.5-3.4-3.4s1.5-3.4,3.4-3.4s3.4,1.5,3.4,3.4S293.9,25,292,25z"/>
</g>
<g>
	<g>
		<g>
			<path class="st1" d="M223,57.6c-0.2,0.3-0.5,0.5-1,0.8c-0.5,0.2-1.1,0.4-1.9,0.4c-1,0-1.8-0.3-2.4-1c-0.6-0.7-0.9-1.5-0.9-2.6
				v-1.6c0-1,0.3-1.9,0.9-2.6c0.6-0.7,1.4-1,2.3-1c0.9,0,1.6,0.2,2.1,0.7c0.5,0.5,0.8,1.1,0.9,1.8l0,0h-0.6c-0.1-0.6-0.3-1-0.7-1.4
				c-0.4-0.4-0.9-0.5-1.7-0.5c-0.8,0-1.4,0.3-1.8,0.8c-0.5,0.6-0.7,1.3-0.7,2.1v1.6c0,0.9,0.2,1.6,0.7,2.2s1.1,0.9,1.9,0.9
				c0.6,0,1-0.1,1.4-0.2c0.4-0.2,0.7-0.3,0.8-0.5v-2.2H220v-0.6h3V57.6z"/>
			<path class="st1" d="M227.8,52.9l-0.5,0c-0.4,0-0.8,0.1-1.1,0.4c-0.3,0.2-0.5,0.6-0.6,1v4.4h-0.7v-6.3h0.6l0.1,1v0.1
				c0.2-0.4,0.4-0.7,0.7-0.9c0.3-0.2,0.7-0.3,1.1-0.3c0.1,0,0.2,0,0.3,0c0.1,0,0.2,0,0.2,0L227.8,52.9z"/>
			<path class="st1" d="M228.5,55.4c0-0.9,0.3-1.7,0.8-2.3c0.5-0.6,1.2-0.9,2-0.9c0.8,0,1.5,0.3,2,0.9c0.5,0.6,0.8,1.4,0.8,2.3v0.2
				c0,0.9-0.3,1.7-0.8,2.3c-0.5,0.6-1.2,0.9-2,0.9c-0.8,0-1.5-0.3-2-0.9c-0.5-0.6-0.8-1.4-0.8-2.3V55.4z M229.2,55.6
				c0,0.7,0.2,1.3,0.6,1.8s0.9,0.7,1.5,0.7c0.6,0,1.2-0.2,1.5-0.7s0.6-1.1,0.6-1.8v-0.2c0-0.7-0.2-1.3-0.6-1.8
				c-0.4-0.5-0.9-0.8-1.5-0.8s-1.2,0.3-1.5,0.8c-0.4,0.5-0.6,1.1-0.6,1.8V55.6z"/>
			<path class="st1" d="M236.9,56.6l0.2,1.1h0l0.3-1.1l1.3-4.3h0.6l1.3,4.3l0.3,1.2h0l0.3-1.2l1.1-4.3h0.7l-1.8,6.3h-0.6l-1.4-4.3
				l-0.3-1.1h0l-0.3,1.1l-1.4,4.3h-0.6l-1.8-6.3h0.7L236.9,56.6z"/>
			<path class="st1" d="M249.1,56.3l0.3,1.3l0,0l0.3-1.3l1.8-6.1h0.7l1.8,6.1l0.3,1.3l0,0l0.3-1.3l1.5-6.1h0.7l-2.2,8.5H254
				l-1.9-6.5l-0.2-0.9h0l-0.2,0.9l-1.9,6.5H249l-2.2-8.5h0.7L249.1,56.3z"/>
			<path class="st1" d="M258.9,50.5h-0.7v-1h0.7V50.5z M258.9,58.7h-0.7v-6.3h0.7V58.7z"/>
			<path class="st1" d="M261.9,50.7v1.6h1.4v0.6h-1.4V57c0,0.4,0.1,0.7,0.2,0.9c0.1,0.2,0.3,0.3,0.6,0.3c0.1,0,0.2,0,0.3,0
				c0.1,0,0.2,0,0.4,0l0.1,0.5c-0.1,0.1-0.3,0.1-0.4,0.1s-0.3,0-0.5,0c-0.4,0-0.8-0.1-1-0.4c-0.2-0.3-0.4-0.7-0.4-1.3v-4.1h-1.1
				v-0.6h1.1v-1.6H261.9z"/>
			<path class="st1" d="M265.5,53.4c0.2-0.4,0.5-0.7,0.8-0.9c0.3-0.2,0.8-0.3,1.2-0.3c0.7,0,1.2,0.2,1.5,0.6
				c0.4,0.4,0.5,1.1,0.5,1.9v3.9h-0.7v-3.9c0-0.7-0.1-1.2-0.4-1.5c-0.3-0.3-0.6-0.4-1.1-0.4c-0.5,0-0.9,0.1-1.2,0.4
				c-0.3,0.3-0.6,0.6-0.7,1v4.5h-0.7v-9.1h0.7V53.4z"/>
			<path class="st1" d="M280.5,50.2v5.8c0,0.9-0.3,1.6-0.8,2.1c-0.6,0.5-1.3,0.7-2.2,0.7c-0.9,0-1.6-0.2-2.2-0.7
				c-0.6-0.5-0.8-1.2-0.8-2.1v-5.8h0.7v5.7c0,0.7,0.2,1.3,0.6,1.7c0.4,0.4,1,0.6,1.7,0.6c0.7,0,1.3-0.2,1.7-0.6
				c0.4-0.4,0.7-1,0.7-1.7v-5.7H280.5z"/>
			<path class="st1" d="M286.1,57c0-0.3-0.1-0.6-0.4-0.8c-0.2-0.2-0.7-0.4-1.3-0.5c-0.8-0.2-1.3-0.4-1.7-0.6s-0.5-0.6-0.5-1.1
				c0-0.5,0.2-0.9,0.6-1.2c0.4-0.3,0.9-0.5,1.6-0.5c0.7,0,1.3,0.2,1.7,0.5c0.4,0.4,0.6,0.8,0.6,1.3l0,0h-0.6c0-0.3-0.1-0.6-0.4-0.9
				s-0.7-0.4-1.2-0.4c-0.5,0-0.9,0.1-1.1,0.3c-0.3,0.2-0.4,0.5-0.4,0.8c0,0.3,0.1,0.5,0.3,0.7s0.7,0.4,1.3,0.5
				c0.8,0.2,1.3,0.4,1.7,0.7c0.4,0.3,0.6,0.7,0.6,1.2c0,0.5-0.2,1-0.6,1.3c-0.4,0.3-1,0.5-1.7,0.5c-0.8,0-1.4-0.2-1.8-0.5
				c-0.4-0.4-0.6-0.8-0.6-1.3l0,0h0.6c0,0.5,0.2,0.8,0.6,1s0.7,0.3,1.2,0.3c0.5,0,0.9-0.1,1.2-0.3C286,57.6,286.1,57.4,286.1,57z"/>
		</g>
	</g>
	<g>
		<g>
			<path class="st1" d="M8.9,7.3H5.9v7.9H5.2V7.3H2.3V6.7h6.5V7.3z"/>
			<path class="st1" d="M10.7,10c0.2-0.4,0.5-0.7,0.8-0.9c0.3-0.2,0.8-0.3,1.2-0.3c0.7,0,1.2,0.2,1.5,0.6c0.4,0.4,0.5,1.1,0.5,1.9
				v3.9h-0.7v-3.9c0-0.7-0.1-1.2-0.4-1.5c-0.3-0.3-0.6-0.4-1.1-0.4c-0.5,0-0.9,0.1-1.2,0.4c-0.3,0.3-0.6,0.6-0.7,1v4.5h-0.7V6.1h0.7
				V10z"/>
			<path class="st1" d="M19.1,15.3c-0.8,0-1.4-0.3-2-0.9c-0.5-0.6-0.8-1.3-0.8-2.2v-0.3c0-0.9,0.3-1.6,0.8-2.2
				c0.5-0.6,1.1-0.9,1.9-0.9c0.8,0,1.4,0.2,1.8,0.7c0.4,0.5,0.7,1.1,0.7,2v0.6H17v0.2c0,0.7,0.2,1.3,0.6,1.8s0.9,0.7,1.5,0.7
				c0.4,0,0.8-0.1,1.1-0.2c0.3-0.1,0.6-0.3,0.8-0.5l0.3,0.5c-0.2,0.2-0.5,0.4-0.9,0.6C20,15.3,19.6,15.3,19.1,15.3z M19,9.4
				c-0.5,0-0.9,0.2-1.3,0.6c-0.3,0.4-0.6,0.9-0.6,1.5l0,0h3.7v-0.2c0-0.5-0.2-1-0.5-1.4C20,9.6,19.5,9.4,19,9.4z"/>
		</g>
	</g>
	<g>
		<g>
			<path class="st0" d="M151.7,18.6c0.1,0,0.2,0.1,0.3,0.3L170,42.9c0-0.4-0.1-0.8-0.1-1.1V18.6h1.8v27.6h-1c-0.3,0-0.5-0.1-0.7-0.4
				l-18-24c0,0.4,0.1,0.8,0.1,1.1v23.3h-1.7V18.6h1C151.5,18.6,151.6,18.6,151.7,18.6z"/>
			<path class="st0" d="M185.3,26.5c1.1,0,2.1,0.2,3,0.6c0.9,0.4,1.7,0.9,2.4,1.7s1.2,1.6,1.6,2.7c0.4,1.1,0.6,2.3,0.6,3.6
				c0,0.3,0,0.5-0.1,0.6c-0.1,0.1-0.2,0.2-0.4,0.2h-14v0.4c0,1.5,0.2,2.7,0.5,3.8c0.3,1.1,0.8,2,1.4,2.8c0.6,0.7,1.4,1.3,2.3,1.7
				c0.9,0.4,1.9,0.6,3,0.6c1,0,1.8-0.1,2.5-0.3c0.7-0.2,1.3-0.5,1.8-0.7s0.9-0.5,1.2-0.7c0.3-0.2,0.5-0.3,0.6-0.3
				c0.2,0,0.3,0.1,0.4,0.2l0.5,0.6c-0.3,0.4-0.7,0.8-1.2,1.1c-0.5,0.3-1.1,0.6-1.7,0.9c-0.6,0.2-1.3,0.4-2,0.6s-1.4,0.2-2.2,0.2
				c-1.3,0-2.5-0.2-3.6-0.7s-2-1.1-2.8-2c-0.8-0.9-1.4-2-1.8-3.3c-0.4-1.3-0.6-2.8-0.6-4.4c0-1.4,0.2-2.7,0.6-3.9
				c0.4-1.2,1-2.2,1.7-3c0.7-0.9,1.7-1.5,2.8-2C182.7,26.7,183.9,26.5,185.3,26.5z M185.3,27.8c-1,0-1.9,0.2-2.7,0.5
				s-1.5,0.8-2.1,1.3s-1,1.3-1.4,2.1c-0.4,0.8-0.6,1.7-0.7,2.8h12.8c0-1-0.1-2-0.4-2.8c-0.3-0.8-0.7-1.5-1.2-2.1
				c-0.5-0.6-1.1-1-1.9-1.3C187,28,186.2,27.8,185.3,27.8z"/>
			<path class="st0" d="M202.2,46.5c-1.3,0-2.3-0.4-3.1-1.1c-0.7-0.7-1.1-1.9-1.1-3.4V28.8h-2.8c-0.1,0-0.3,0-0.4-0.1
				c-0.1-0.1-0.1-0.2-0.1-0.3v-0.7l3.3-0.2l0.5-7c0-0.1,0.1-0.2,0.1-0.3c0.1-0.1,0.2-0.1,0.3-0.1h0.9v7.4h6.1v1.4h-6.1v13.2
				c0,0.5,0.1,1,0.2,1.4c0.1,0.4,0.3,0.7,0.6,0.9c0.2,0.2,0.5,0.4,0.8,0.5c0.3,0.1,0.7,0.2,1.1,0.2c0.5,0,0.9-0.1,1.2-0.2
				c0.3-0.1,0.6-0.3,0.9-0.4c0.2-0.2,0.4-0.3,0.6-0.4s0.3-0.2,0.4-0.2c0.1,0,0.2,0.1,0.3,0.2l0.5,0.8c-0.5,0.5-1.1,1-1.9,1.3
				S203,46.5,202.2,46.5z"/>
			<path class="st0" d="M207.2,26.8h1.4c0.2,0,0.3,0,0.4,0.1s0.2,0.2,0.2,0.3l4.9,15.3c0.1,0.3,0.2,0.6,0.2,0.9
				c0.1,0.3,0.1,0.5,0.2,0.8c0.1-0.3,0.1-0.5,0.2-0.8c0.1-0.3,0.2-0.6,0.3-0.9l5.2-15.5c0.1-0.3,0.3-0.4,0.5-0.4h0.8
				c0.3,0,0.5,0.1,0.6,0.4l5.1,15.5c0.2,0.6,0.4,1.2,0.5,1.7c0.1-0.3,0.1-0.6,0.2-0.8c0.1-0.3,0.1-0.6,0.2-0.9l4.9-15.3
				c0.1-0.3,0.3-0.5,0.7-0.5h1.4l-6.5,19.4h-1.4c-0.2,0-0.4-0.1-0.4-0.4L221.4,30c-0.1-0.2-0.1-0.4-0.2-0.6
				c-0.1-0.2-0.1-0.4-0.1-0.6c0,0.2-0.1,0.4-0.1,0.6c0,0.2-0.1,0.4-0.2,0.6l-5.4,15.8c-0.1,0.3-0.2,0.4-0.5,0.4h-1.3L207.2,26.8z"/>
			<path class="st0" d="M245.1,26.5c1.4,0,2.6,0.2,3.7,0.7c1.1,0.5,2,1.1,2.8,2c0.8,0.9,1.3,1.9,1.7,3.2c0.4,1.2,0.6,2.6,0.6,4.1
				c0,1.5-0.2,2.9-0.6,4.1c-0.4,1.2-1,2.3-1.7,3.1c-0.8,0.9-1.7,1.5-2.8,2c-1.1,0.5-2.3,0.7-3.7,0.7c-1.4,0-2.6-0.2-3.7-0.7
				c-1.1-0.5-2-1.1-2.8-2c-0.8-0.9-1.3-1.9-1.7-3.1c-0.4-1.2-0.6-2.6-0.6-4.1c0-1.5,0.2-2.9,0.6-4.1c0.4-1.2,1-2.3,1.7-3.2
				c0.8-0.9,1.7-1.5,2.8-2C242.5,26.7,243.7,26.5,245.1,26.5z M245.1,45c1.2,0,2.2-0.2,3-0.6c0.9-0.4,1.6-1,2.2-1.7
				c0.6-0.7,1-1.6,1.3-2.7c0.3-1,0.4-2.2,0.4-3.5c0-1.3-0.1-2.5-0.4-3.5c-0.3-1.1-0.7-2-1.3-2.7c-0.6-0.7-1.3-1.3-2.2-1.7
				c-0.9-0.4-1.9-0.6-3-0.6c-1.2,0-2.2,0.2-3,0.6c-0.9,0.4-1.6,1-2.2,1.7c-0.6,0.7-1,1.7-1.3,2.7s-0.4,2.2-0.4,3.5
				c0,1.3,0.1,2.5,0.4,3.5c0.3,1,0.7,1.9,1.3,2.7c0.6,0.7,1.3,1.3,2.2,1.7C242.9,44.8,243.9,45,245.1,45z"/>
			<path class="st0" d="M257.9,46.2V26.8h1c0.2,0,0.4,0,0.5,0.1s0.2,0.2,0.2,0.5l0.2,4.1c0.6-1.6,1.5-2.8,2.5-3.7
				c1-0.9,2.3-1.3,3.8-1.3c0.6,0,1.1,0.1,1.6,0.2c0.5,0.1,1,0.3,1.4,0.5l-0.3,1.3c0,0.2-0.2,0.3-0.4,0.3c-0.1,0-0.2,0-0.3-0.1
				c-0.1-0.1-0.3-0.1-0.5-0.2c-0.2-0.1-0.5-0.1-0.8-0.2c-0.3-0.1-0.7-0.1-1.1-0.1c-1.5,0-2.7,0.5-3.6,1.4c-0.9,0.9-1.7,2.2-2.3,3.9
				v12.6H257.9z"/>
			<path class="st0" d="M274.4,17.8v17.3h0.9c0.2,0,0.4,0,0.5-0.1c0.2-0.1,0.3-0.2,0.5-0.4l7.8-7.4c0.1-0.1,0.3-0.3,0.4-0.4
				s0.3-0.1,0.6-0.1h1.6l-8.6,8.1c-0.1,0.1-0.3,0.3-0.4,0.4c-0.1,0.1-0.2,0.2-0.4,0.3c0.2,0.1,0.4,0.2,0.5,0.4
				c0.1,0.1,0.3,0.3,0.4,0.5l9,9.8h-1.6c-0.2,0-0.3,0-0.5-0.1c-0.1-0.1-0.3-0.2-0.4-0.3l-8.2-8.8c-0.2-0.2-0.4-0.4-0.6-0.5
				c-0.2-0.1-0.5-0.1-0.9-0.1h-0.9v9.8h-1.9V17.8H274.4z"/>
		</g>
	</g>
	<g>
		<g>
			<path class="st2" d="M140.9,23.8c0,0-14.8-4.8-15-1.7C125.6,25.1,140.9,23.8,140.9,23.8z"/>
			<path class="st2" d="M113.8,23.8c0,0,14.8-4.8,15-1.7C129.1,25.1,113.8,23.8,113.8,23.8z"/>
			<path class="st3" d="M130.5,26.2c0,0-3.5-5.1-4.3-4.2C125.3,22.9,130.5,26.2,130.5,26.2z"/>
			<path class="st3" d="M124.2,26.2c0,0,3.5-5.1,4.3-4.2C129.3,22.9,124.2,26.2,124.2,26.2z"/>
			<path class="st4" d="M127.4,0c0,0-4.7,23.6,0,23.5C132.1,23.3,127.4,0,127.4,0z"/>
			<path class="st2" d="M142.4,12.3c0,0-18.6,7.7-16.3,10.9C128.4,26.5,142.4,12.3,142.4,12.3z"/>
			<path class="st2" d="M112.3,12.3c0,0,18.6,7.7,16.3,10.9C126.3,26.5,112.3,12.3,112.3,12.3z"/>
		</g>
		<g>
			<path class="st5" d="M23.8,41.4c0.1,0,0.2,0,0.3,0.1l0.8,0.8c-0.6,0.6-1.2,1.2-1.9,1.6c-0.7,0.5-1.4,0.9-2.2,1.3
				c-0.8,0.3-1.7,0.6-2.6,0.8c-1,0.2-2,0.3-3.2,0.3c-1.9,0-3.7-0.3-5.3-1c-1.6-0.7-3-1.6-4.1-2.8c-1.2-1.2-2-2.7-2.7-4.4
				c-0.6-1.8-1-3.7-1-5.8c0-2.1,0.3-4,1-5.7c0.7-1.7,1.6-3.2,2.8-4.5c1.2-1.2,2.6-2.2,4.3-2.9c1.7-0.7,3.5-1,5.5-1
				c1,0,1.9,0.1,2.8,0.2c0.8,0.1,1.6,0.4,2.3,0.6c0.7,0.3,1.4,0.6,2,1c0.6,0.4,1.3,0.9,1.9,1.5L24,22.4c-0.1,0.2-0.3,0.2-0.5,0.2
				c-0.1,0-0.3-0.1-0.4-0.2c-0.2-0.1-0.4-0.3-0.7-0.5c-0.3-0.2-0.6-0.4-1-0.7c-0.4-0.2-0.9-0.5-1.4-0.7c-0.5-0.2-1.2-0.4-1.9-0.5
				c-0.7-0.1-1.5-0.2-2.5-0.2c-1.7,0-3.2,0.3-4.6,0.9c-1.4,0.6-2.6,1.4-3.6,2.5c-1,1.1-1.8,2.4-2.4,3.9c-0.6,1.5-0.9,3.2-0.9,5.2
				c0,2,0.3,3.7,0.8,5.2c0.6,1.5,1.3,2.8,2.3,3.9c1,1.1,2.2,1.9,3.5,2.5c1.4,0.6,2.8,0.8,4.4,0.8c1,0,1.9-0.1,2.6-0.2
				c0.8-0.1,1.5-0.3,2.1-0.6c0.6-0.3,1.3-0.6,1.8-1c0.5-0.4,1.1-0.8,1.7-1.3c0.1-0.1,0.1-0.1,0.2-0.1C23.7,41.5,23.7,41.4,23.8,41.4
				z"/>
			<path class="st5" d="M40.7,46.1c-0.4,0-0.6-0.2-0.7-0.5L39.7,43c-0.5,0.5-1.1,1-1.6,1.4c-0.5,0.4-1.1,0.8-1.7,1.1
				c-0.6,0.3-1.2,0.5-1.9,0.7c-0.7,0.1-1.4,0.2-2.2,0.2c-0.7,0-1.3-0.1-1.9-0.3c-0.6-0.2-1.2-0.5-1.7-0.9c-0.5-0.4-0.9-0.9-1.2-1.5
				c-0.3-0.6-0.4-1.4-0.4-2.3c0-0.8,0.2-1.6,0.7-2.3c0.5-0.7,1.2-1.3,2.2-1.8c1-0.5,2.3-0.9,3.8-1.2c1.6-0.3,3.5-0.5,5.7-0.6v-2
				c0-1.8-0.4-3.2-1.2-4.1c-0.8-1-1.9-1.5-3.5-1.5c-0.9,0-1.7,0.1-2.4,0.4c-0.7,0.3-1.2,0.6-1.7,0.9c-0.4,0.3-0.8,0.6-1.1,0.9
				c-0.3,0.2-0.5,0.4-0.7,0.4c-0.3,0-0.5-0.1-0.6-0.3l-0.3-0.6c1-1,2.1-1.8,3.2-2.3c1.1-0.5,2.4-0.8,3.8-0.8c1,0,1.9,0.2,2.7,0.5
				c0.8,0.3,1.4,0.8,1.9,1.4c0.5,0.6,0.9,1.4,1.2,2.2c0.3,0.9,0.4,1.9,0.4,2.9v12.7H40.7z M32.9,45c0.7,0,1.4-0.1,2.1-0.2
				c0.6-0.2,1.2-0.4,1.8-0.7c0.5-0.3,1-0.6,1.5-1c0.5-0.4,0.9-0.8,1.4-1.3v-5.1c-1.8,0-3.4,0.2-4.8,0.4c-1.3,0.2-2.4,0.5-3.3,0.9
				c-0.9,0.4-1.5,0.9-1.9,1.4c-0.4,0.5-0.6,1.2-0.6,1.9c0,0.6,0.1,1.2,0.3,1.7c0.2,0.5,0.5,0.9,0.9,1.2c0.3,0.3,0.8,0.5,1.2,0.7
				C31.9,45,32.4,45,32.9,45z"/>
			<path class="st5" d="M45.4,46.1V26.6h1c0.3,0,0.5,0.2,0.6,0.5l0.2,2.9c0.9-1.1,1.9-2,3.1-2.7c1.2-0.7,2.5-1,3.9-1
				c1.1,0,2,0.2,2.8,0.5c0.8,0.3,1.5,0.8,2,1.5c0.5,0.7,1,1.4,1.2,2.3c0.3,0.9,0.4,1.9,0.4,3v12.4h-1.9V33.7c0-1.8-0.4-3.3-1.3-4.3
				c-0.8-1-2.1-1.6-3.8-1.6c-1.3,0-2.5,0.3-3.6,1c-1.1,0.7-2.1,1.6-2.9,2.7v14.6H45.4z"/>
			<path class="st5" d="M64.6,46.1V26.6h1c0.3,0,0.5,0.2,0.6,0.5l0.2,2.9c0.9-1.1,1.9-2,3.1-2.7c1.2-0.7,2.5-1,3.9-1
				c1.1,0,2,0.2,2.8,0.5c0.8,0.3,1.5,0.8,2,1.5c0.5,0.7,0.9,1.4,1.2,2.3c0.3,0.9,0.4,1.9,0.4,3v12.4H78V33.7c0-1.8-0.4-3.3-1.2-4.3
				c-0.8-1-2.1-1.6-3.8-1.6c-1.3,0-2.5,0.3-3.6,1c-1.1,0.7-2.1,1.6-2.9,2.7v14.6H64.6z"/>
			<path class="st5" d="M96.1,46.1c-0.4,0-0.6-0.2-0.7-0.5L95.2,43c-0.5,0.5-1.1,1-1.6,1.4c-0.5,0.4-1.1,0.8-1.6,1.1
				c-0.6,0.3-1.2,0.5-1.9,0.7c-0.7,0.1-1.4,0.2-2.2,0.2c-0.7,0-1.3-0.1-1.9-0.3c-0.6-0.2-1.2-0.5-1.7-0.9c-0.5-0.4-0.9-0.9-1.2-1.5
				c-0.3-0.6-0.4-1.4-0.4-2.3c0-0.8,0.2-1.6,0.7-2.3c0.5-0.7,1.2-1.3,2.2-1.8c1-0.5,2.3-0.9,3.8-1.2c1.6-0.3,3.5-0.5,5.6-0.6v-2
				c0-1.8-0.4-3.2-1.2-4.1c-0.8-1-1.9-1.5-3.4-1.5c-0.9,0-1.7,0.1-2.4,0.4c-0.7,0.3-1.2,0.6-1.7,0.9c-0.5,0.3-0.8,0.6-1.1,0.9
				c-0.3,0.2-0.5,0.4-0.7,0.4c-0.3,0-0.5-0.1-0.6-0.3l-0.3-0.6c1-1,2.1-1.8,3.2-2.3c1.1-0.5,2.4-0.8,3.8-0.8c1,0,1.9,0.2,2.7,0.5
				c0.8,0.3,1.4,0.8,2,1.4c0.5,0.6,0.9,1.4,1.2,2.2c0.3,0.9,0.4,1.9,0.4,2.9v12.7H96.1z M88.3,45c0.8,0,1.5-0.1,2.1-0.2
				c0.6-0.2,1.2-0.4,1.8-0.7c0.5-0.3,1-0.6,1.5-1c0.5-0.4,0.9-0.8,1.4-1.3v-5.1c-1.9,0-3.4,0.2-4.8,0.4c-1.3,0.2-2.4,0.5-3.3,0.9
				c-0.9,0.4-1.5,0.9-1.9,1.4c-0.4,0.5-0.6,1.2-0.6,1.9c0,0.6,0.1,1.2,0.3,1.7c0.2,0.5,0.5,0.9,0.8,1.2c0.4,0.3,0.8,0.5,1.2,0.7
				C87.3,45,87.8,45,88.3,45z"/>
			<path class="st5" d="M99.7,44.6c0-0.2,0.1-0.5,0.1-0.7c0.1-0.2,0.2-0.4,0.4-0.6c0.2-0.2,0.4-0.3,0.6-0.4c0.2-0.1,0.4-0.1,0.7-0.1
				c0.2,0,0.5,0.1,0.7,0.1c0.2,0.1,0.4,0.2,0.6,0.4c0.2,0.2,0.3,0.4,0.4,0.6c0.1,0.2,0.1,0.5,0.1,0.7c0,0.3-0.1,0.5-0.1,0.7
				c-0.1,0.2-0.2,0.4-0.4,0.6c-0.2,0.2-0.4,0.3-0.6,0.4c-0.2,0.1-0.5,0.2-0.7,0.2c-0.5,0-0.9-0.2-1.3-0.5
				C99.9,45.5,99.7,45.1,99.7,44.6z"/>
			<path class="st5" d="M106.8,46.1V17.7h1.9l0,12.4c0.9-1.1,1.9-2.1,3-2.7c1.1-0.7,2.4-1,3.8-1c2.4,0,4.2,0.8,5.6,2.5
				c1.3,1.7,2,4.1,2,7.4c0,1.4-0.2,2.7-0.5,4c-0.4,1.2-0.9,2.3-1.7,3.2c-0.7,0.9-1.6,1.6-2.7,2.1c-1.1,0.5-2.3,0.8-3.6,0.8
				c-1.4,0-2.5-0.3-3.5-0.8c-1-0.5-1.8-1.3-2.5-2.3l-0.1,2.4c0,0.3-0.2,0.5-0.5,0.5H106.8z M114.9,27.8c-1.3,0-2.4,0.3-3.5,1
				c-1,0.7-2,1.6-2.8,2.8v10.2c0.7,1.1,1.6,1.9,2.5,2.4c0.9,0.5,1.9,0.7,3.1,0.7c1.1,0,2.1-0.2,3-0.6c0.9-0.4,1.6-1,2.2-1.8
				c0.6-0.8,1-1.7,1.3-2.7c0.3-1.1,0.5-2.2,0.5-3.5c0-2.9-0.5-5-1.6-6.4C118.4,28.5,116.9,27.8,114.9,27.8z"/>
			<path class="st5" d="M128.3,26.6v19.4h-1.9V26.6H128.3z"/>
			<path class="st5" d="M146.2,27.4c0,0.3-0.1,0.5-0.3,0.7l-12.2,16.5h11.9v1.5h-14.2v-0.7c0-0.2,0.1-0.5,0.3-0.7L144,28.1h-11.9
				v-1.5h14V27.4z"/>
		</g>
	</g>
</g>
</svg>
