<?xml version="1.0" encoding="utf-8"?>
<!-- Generator: Adobe Illustrator 19.1.0, SVG Export Plug-In . SVG Version: 6.00 Build 0)  -->
<svg version="1.1" id="Layer_1" xmlns="http://www.w3.org/2000/svg" xmlns:xlink="http://www.w3.org/1999/xlink" x="0px" y="0px"
	 viewBox="0 0 299.6 61" style="enable-background:new 0 0 299.6 61;" xml:space="preserve">
<style type="text/css">
	.st0{fill:#999999;}
	.st1{opacity:0.8;fill:#999999;}
	.st2{opacity:0.4;fill:#999999;}
	.st3{opacity:0.9;fill:#999999;}
</style>
<g>
	<g>
		<g>
			<path class="st0" d="M224.3,58.4c-0.2,0.3-0.5,0.5-1,0.8s-1.1,0.4-1.9,0.4c-1,0-1.8-0.3-2.4-1c-0.6-0.7-1-1.6-1-2.6v-1.6
				c0-1.1,0.3-1.9,0.9-2.6c0.6-0.7,1.4-1,2.4-1c0.9,0,1.6,0.2,2.2,0.7c0.5,0.5,0.8,1.1,0.9,1.8l0,0h-0.7c-0.1-0.6-0.3-1-0.7-1.4
				c-0.4-0.4-0.9-0.5-1.7-0.5c-0.8,0-1.4,0.3-1.9,0.8c-0.5,0.6-0.7,1.3-0.7,2.1v1.6c0,0.9,0.2,1.6,0.7,2.2c0.5,0.6,1.1,0.9,2,0.9
				c0.6,0,1.1-0.1,1.4-0.2c0.4-0.2,0.7-0.3,0.8-0.5V56h-2.3v-0.6h3V58.4z"/>
			<path class="st0" d="M229.2,53.7l-0.5,0c-0.4,0-0.8,0.1-1.1,0.4c-0.3,0.2-0.5,0.6-0.6,1v4.4h-0.7v-6.4h0.6l0.1,1.1v0.1
				c0.2-0.4,0.4-0.7,0.7-0.9c0.3-0.2,0.7-0.3,1.1-0.3c0.1,0,0.2,0,0.3,0c0.1,0,0.2,0,0.2,0L229.2,53.7z"/>
			<path class="st0" d="M229.9,56.1c0-0.9,0.3-1.7,0.8-2.3c0.5-0.6,1.2-0.9,2-0.9c0.9,0,1.5,0.3,2,0.9c0.5,0.6,0.8,1.4,0.8,2.3v0.2
				c0,0.9-0.3,1.7-0.8,2.3c-0.5,0.6-1.2,0.9-2,0.9c-0.9,0-1.5-0.3-2.1-0.9c-0.5-0.6-0.8-1.4-0.8-2.3V56.1z M230.6,56.3
				c0,0.7,0.2,1.4,0.6,1.9c0.4,0.5,0.9,0.8,1.6,0.8c0.7,0,1.2-0.3,1.5-0.8c0.4-0.5,0.6-1.1,0.6-1.9v-0.2c0-0.7-0.2-1.3-0.6-1.8
				c-0.4-0.5-0.9-0.8-1.6-0.8c-0.7,0-1.2,0.3-1.5,0.8c-0.4,0.5-0.6,1.1-0.6,1.8V56.3z"/>
			<path class="st0" d="M238.3,57.4l0.2,1.1h0l0.3-1.1l1.4-4.3h0.6l1.4,4.3l0.3,1.2h0l0.3-1.2l1.2-4.3h0.7l-1.9,6.4h-0.6l-1.4-4.4
				l-0.3-1.1h0l-0.3,1.1l-1.4,4.4h-0.6l-1.8-6.4h0.7L238.3,57.4z"/>
			<path class="st0" d="M250.7,57l0.3,1.3l0,0l0.3-1.3l1.8-6.1h0.7l1.8,6.1l0.3,1.3l0,0l0.3-1.3l1.5-6.1h0.7l-2.2,8.6h-0.7l-1.9-6.6
				l-0.2-0.9h0l-0.2,0.9l-1.9,6.6h-0.7l-2.2-8.6h0.7L250.7,57z"/>
			<path class="st0" d="M260.6,51.2h-0.7v-1h0.7V51.2z M260.6,59.4h-0.7v-6.4h0.7V59.4z"/>
			<path class="st0" d="M263.6,51.4v1.6h1.4v0.6h-1.4v4.1c0,0.4,0.1,0.7,0.2,0.9s0.4,0.3,0.6,0.3c0.1,0,0.2,0,0.3,0
				c0.1,0,0.2,0,0.4-0.1l0.1,0.5c-0.1,0.1-0.3,0.1-0.4,0.1c-0.2,0-0.3,0-0.5,0c-0.4,0-0.8-0.1-1-0.4c-0.2-0.3-0.4-0.7-0.4-1.3v-4.1
				h-1.1v-0.6h1.1v-1.6H263.6z"/>
			<path class="st0" d="M267.2,54.1c0.2-0.4,0.5-0.7,0.8-0.9c0.4-0.2,0.8-0.3,1.2-0.3c0.7,0,1.2,0.2,1.5,0.6
				c0.4,0.4,0.5,1.1,0.5,1.9v3.9h-0.7v-3.9c0-0.7-0.1-1.2-0.4-1.5c-0.3-0.3-0.6-0.5-1.1-0.5c-0.5,0-0.9,0.1-1.2,0.4
				c-0.3,0.3-0.6,0.6-0.7,1v4.5h-0.7v-9.2h0.7V54.1z"/>
			<path class="st0" d="M282.3,50.9v5.8c0,0.9-0.3,1.6-0.9,2.1c-0.6,0.5-1.3,0.7-2.2,0.7c-0.9,0-1.6-0.2-2.2-0.7
				c-0.6-0.5-0.8-1.2-0.8-2.1v-5.8h0.7v5.8c0,0.7,0.2,1.3,0.6,1.7c0.4,0.4,1,0.6,1.7,0.6c0.7,0,1.3-0.2,1.7-0.6
				c0.4-0.4,0.7-1,0.7-1.7v-5.8H282.3z"/>
			<path class="st0" d="M288,57.8c0-0.3-0.1-0.6-0.4-0.8c-0.2-0.2-0.7-0.4-1.3-0.5c-0.8-0.2-1.3-0.4-1.7-0.7
				c-0.4-0.3-0.5-0.7-0.5-1.1c0-0.5,0.2-0.9,0.6-1.2c0.4-0.3,1-0.5,1.6-0.5c0.7,0,1.3,0.2,1.7,0.5c0.4,0.4,0.6,0.8,0.6,1.3l0,0H288
				c0-0.3-0.1-0.7-0.4-0.9c-0.3-0.3-0.7-0.4-1.2-0.4c-0.5,0-0.9,0.1-1.2,0.3c-0.3,0.2-0.4,0.5-0.4,0.8c0,0.3,0.1,0.5,0.3,0.7
				c0.2,0.2,0.7,0.4,1.3,0.5c0.8,0.2,1.3,0.4,1.7,0.7c0.4,0.3,0.6,0.7,0.6,1.2c0,0.5-0.2,1-0.6,1.3c-0.4,0.3-1,0.5-1.7,0.5
				c-0.8,0-1.4-0.2-1.8-0.6c-0.4-0.4-0.6-0.8-0.6-1.3l0,0h0.6c0,0.5,0.2,0.8,0.6,1c0.3,0.2,0.8,0.3,1.2,0.3c0.5,0,0.9-0.1,1.2-0.3
				C287.9,58.4,288,58.1,288,57.8z"/>
		</g>
	</g>
	<g>
		<g>
			<path class="st0" d="M8.3,7.6H5.4v8H4.7v-8H1.7V7h6.6V7.6z"/>
			<path class="st0" d="M10.2,10.3c0.2-0.4,0.5-0.7,0.8-0.9c0.4-0.2,0.8-0.3,1.2-0.3c0.7,0,1.2,0.2,1.5,0.6c0.4,0.4,0.5,1.1,0.5,1.9
				v3.9h-0.7v-3.9c0-0.7-0.1-1.2-0.4-1.5c-0.3-0.3-0.6-0.5-1.1-0.5c-0.5,0-0.9,0.1-1.2,0.4c-0.3,0.3-0.6,0.6-0.7,1v4.5H9.5V6.4h0.7
				V10.3z"/>
			<path class="st0" d="M18.6,15.7c-0.8,0-1.5-0.3-2-0.9c-0.5-0.6-0.8-1.3-0.8-2.2v-0.3c0-0.9,0.3-1.7,0.8-2.3
				c0.5-0.6,1.2-0.9,1.9-0.9c0.8,0,1.4,0.2,1.8,0.7c0.4,0.5,0.7,1.2,0.7,2v0.6h-4.5v0.2c0,0.7,0.2,1.3,0.6,1.8
				c0.4,0.5,0.9,0.7,1.5,0.7c0.4,0,0.8-0.1,1.1-0.2c0.3-0.1,0.6-0.3,0.8-0.5l0.3,0.5c-0.2,0.3-0.5,0.5-0.9,0.6
				C19.5,15.7,19.1,15.7,18.6,15.7z M18.5,9.7c-0.5,0-1,0.2-1.3,0.6c-0.4,0.4-0.6,0.9-0.6,1.5l0,0h3.7v-0.2c0-0.6-0.2-1-0.5-1.4
				C19.5,9.9,19.1,9.7,18.5,9.7z"/>
		</g>
	</g>
	<g>
		<g>
			<path class="st0" d="M152.4,19c0.1,0,0.2,0.1,0.3,0.3l18.1,24.2c0-0.4-0.1-0.8-0.1-1.1V19h1.8v27.9h-1c-0.3,0-0.5-0.1-0.7-0.4
				l-18.1-24.2c0,0.4,0.1,0.8,0.1,1.1v23.5H151V19h1C152.2,19,152.3,19,152.4,19z"/>
			<path class="st0" d="M186.3,26.9c1.1,0,2.1,0.2,3.1,0.6c0.9,0.4,1.8,0.9,2.4,1.7c0.7,0.7,1.2,1.6,1.6,2.7
				c0.4,1.1,0.6,2.3,0.6,3.7c0,0.3,0,0.5-0.1,0.6c-0.1,0.1-0.2,0.2-0.4,0.2h-14.1v0.4c0,1.5,0.2,2.8,0.5,3.9
				c0.3,1.1,0.8,2.1,1.5,2.8c0.6,0.8,1.4,1.3,2.3,1.7c0.9,0.4,1.9,0.6,3,0.6c1,0,1.8-0.1,2.6-0.3c0.7-0.2,1.3-0.5,1.8-0.7
				c0.5-0.3,0.9-0.5,1.2-0.7c0.3-0.2,0.5-0.3,0.6-0.3c0.2,0,0.3,0.1,0.4,0.2l0.5,0.6c-0.3,0.4-0.7,0.8-1.3,1.1
				c-0.5,0.3-1.1,0.6-1.7,0.9c-0.6,0.2-1.3,0.4-2,0.6c-0.7,0.1-1.5,0.2-2.2,0.2c-1.3,0-2.6-0.2-3.7-0.7c-1.1-0.5-2.1-1.1-2.8-2
				c-0.8-0.9-1.4-2-1.8-3.3c-0.4-1.3-0.6-2.8-0.6-4.4c0-1.4,0.2-2.7,0.6-3.9c0.4-1.2,1-2.2,1.7-3.1c0.8-0.9,1.7-1.5,2.8-2
				C183.6,27.2,184.9,26.9,186.3,26.9z M186.3,28.3c-1,0-1.9,0.2-2.7,0.5c-0.8,0.3-1.5,0.8-2.1,1.4c-0.6,0.6-1.1,1.3-1.4,2.1
				c-0.4,0.8-0.6,1.8-0.7,2.8h12.9c0-1.1-0.1-2-0.4-2.8c-0.3-0.8-0.7-1.5-1.2-2.1c-0.5-0.6-1.2-1-1.9-1.3
				C188,28.5,187.2,28.3,186.3,28.3z"/>
			<path class="st0" d="M203.4,47.2c-1.3,0-2.4-0.4-3.1-1.1c-0.7-0.7-1.1-1.9-1.1-3.4V29.3h-2.8c-0.1,0-0.3,0-0.4-0.1
				c-0.1-0.1-0.1-0.2-0.1-0.3v-0.7l3.4-0.2l0.5-7c0-0.1,0.1-0.2,0.1-0.3c0.1-0.1,0.2-0.1,0.3-0.1h0.9v7.5h6.2v1.4h-6.2v13.3
				c0,0.5,0.1,1,0.2,1.4c0.1,0.4,0.3,0.7,0.6,1s0.5,0.4,0.9,0.6c0.3,0.1,0.7,0.2,1.1,0.2c0.5,0,0.9-0.1,1.2-0.2
				c0.3-0.1,0.6-0.3,0.9-0.5c0.2-0.2,0.5-0.3,0.6-0.5c0.2-0.1,0.3-0.2,0.4-0.2c0.1,0,0.2,0.1,0.3,0.2l0.5,0.8
				c-0.5,0.6-1.1,1-1.9,1.3C205,47,204.2,47.2,203.4,47.2z"/>
			<path class="st0" d="M208.4,27.2h1.4c0.2,0,0.3,0,0.5,0.1c0.1,0.1,0.2,0.2,0.2,0.3l4.9,15.5c0.1,0.3,0.2,0.6,0.2,0.9
				c0.1,0.3,0.1,0.6,0.2,0.8c0.1-0.3,0.1-0.6,0.2-0.8c0.1-0.3,0.2-0.6,0.3-0.9l5.3-15.6c0.1-0.3,0.3-0.4,0.6-0.4h0.8
				c0.3,0,0.5,0.1,0.6,0.4l5.2,15.6c0.2,0.6,0.4,1.2,0.5,1.7c0.1-0.3,0.1-0.6,0.2-0.8c0.1-0.3,0.1-0.6,0.2-0.9l5-15.5
				c0.1-0.3,0.3-0.5,0.7-0.5h1.4L230,46.9h-1.4c-0.2,0-0.4-0.1-0.5-0.4l-5.4-15.9c-0.1-0.2-0.1-0.4-0.2-0.6
				c-0.1-0.2-0.1-0.4-0.1-0.6c0,0.2-0.1,0.4-0.1,0.6s-0.1,0.4-0.2,0.6l-5.4,15.9c-0.1,0.3-0.2,0.4-0.5,0.4h-1.3L208.4,27.2z"/>
			<path class="st0" d="M246.6,26.9c1.4,0,2.7,0.2,3.8,0.7c1.1,0.5,2,1.2,2.8,2c0.8,0.9,1.3,1.9,1.7,3.2c0.4,1.2,0.6,2.6,0.6,4.2
				c0,1.5-0.2,2.9-0.6,4.2c-0.4,1.2-1,2.3-1.7,3.2c-0.8,0.9-1.7,1.6-2.8,2c-1.1,0.5-2.4,0.7-3.8,0.7c-1.4,0-2.7-0.2-3.8-0.7
				c-1.1-0.5-2-1.1-2.8-2c-0.8-0.9-1.4-1.9-1.8-3.2c-0.4-1.2-0.6-2.6-0.6-4.2c0-1.5,0.2-2.9,0.6-4.2c0.4-1.2,1-2.3,1.8-3.2
				c0.8-0.9,1.7-1.6,2.8-2C244,27.2,245.2,26.9,246.6,26.9z M246.6,45.6c1.2,0,2.2-0.2,3.1-0.6s1.6-1,2.2-1.7c0.6-0.7,1-1.7,1.3-2.7
				c0.3-1.1,0.4-2.2,0.4-3.6c0-1.3-0.1-2.5-0.4-3.5c-0.3-1.1-0.7-2-1.3-2.7c-0.6-0.8-1.3-1.3-2.2-1.7c-0.9-0.4-1.9-0.6-3.1-0.6
				c-1.2,0-2.2,0.2-3.1,0.6c-0.9,0.4-1.6,1-2.2,1.7c-0.6,0.8-1,1.7-1.3,2.7c-0.3,1.1-0.4,2.2-0.4,3.5c0,1.3,0.1,2.5,0.4,3.6
				c0.3,1.1,0.7,2,1.3,2.7c0.6,0.7,1.3,1.3,2.2,1.7C244.5,45.4,245.5,45.6,246.6,45.6z"/>
			<path class="st0" d="M259.5,46.9V27.2h1c0.2,0,0.4,0,0.5,0.1c0.1,0.1,0.2,0.2,0.2,0.5l0.2,4.1c0.6-1.6,1.5-2.8,2.5-3.7
				c1.1-0.9,2.3-1.3,3.9-1.3c0.6,0,1.1,0.1,1.6,0.2c0.5,0.1,1,0.3,1.4,0.5l-0.3,1.3c0,0.2-0.2,0.3-0.4,0.3c-0.1,0-0.2,0-0.3-0.1
				c-0.1-0.1-0.3-0.1-0.5-0.2c-0.2-0.1-0.5-0.1-0.8-0.2c-0.3-0.1-0.7-0.1-1.1-0.1c-1.5,0-2.7,0.5-3.7,1.4c-1,0.9-1.7,2.2-2.3,4v12.7
				H259.5z"/>
			<path class="st0" d="M276.2,18.2v17.5h0.9c0.2,0,0.4,0,0.5-0.1c0.2-0.1,0.3-0.2,0.5-0.4l7.9-7.5c0.1-0.1,0.3-0.3,0.4-0.4
				c0.2-0.1,0.3-0.1,0.6-0.1h1.7l-8.7,8.2c-0.1,0.1-0.3,0.3-0.4,0.4c-0.1,0.1-0.2,0.2-0.4,0.3c0.2,0.1,0.4,0.2,0.5,0.4
				c0.1,0.1,0.3,0.3,0.5,0.5l9.1,9.9h-1.6c-0.2,0-0.3,0-0.5-0.1c-0.1-0.1-0.3-0.2-0.4-0.3l-8.2-8.8c-0.2-0.2-0.4-0.4-0.6-0.5
				c-0.2-0.1-0.5-0.1-0.9-0.1h-0.9v9.9h-1.9V18.2H276.2z"/>
		</g>
	</g>
	<g>
		<g>
			<path class="st1" d="M141.5,24.5c0,0-14.9-4.8-15.2-1.7C126.1,25.8,141.5,24.5,141.5,24.5z"/>
			<path class="st1" d="M114.1,24.5c0,0,14.9-4.8,15.2-1.7C129.6,25.8,114.1,24.5,114.1,24.5z"/>
			<path class="st2" d="M131,27c0,0-3.5-5.2-4.3-4.3C125.8,23.6,131,27,131,27z"/>
			<path class="st2" d="M124.7,27c0,0,3.5-5.2,4.3-4.3C129.9,23.6,124.7,27,124.7,27z"/>
			<path class="st3" d="M127.9,0.5c0,0-4.8,23.8,0,23.7C132.6,24.1,127.9,0.5,127.9,0.5z"/>
			<path class="st1" d="M143,13c0,0-18.8,7.8-16.4,11C128.9,27.2,143,13,143,13z"/>
			<path class="st1" d="M112.7,13c0,0,18.7,7.8,16.4,11C126.8,27.2,112.7,13,112.7,13z"/>
		</g>
		<g>
			<path class="st0" d="M23.4,42c0.1,0,0.2,0.1,0.3,0.1l0.8,0.8c-0.6,0.6-1.2,1.2-1.9,1.7c-0.7,0.5-1.4,0.9-2.2,1.3
				c-0.8,0.3-1.7,0.6-2.7,0.8c-1,0.2-2,0.3-3.2,0.3c-1.9,0-3.7-0.3-5.3-1c-1.6-0.7-3-1.6-4.1-2.9c-1.2-1.2-2-2.7-2.7-4.5
				c-0.6-1.8-1-3.7-1-5.9c0-2.1,0.3-4,1-5.8c0.7-1.8,1.6-3.3,2.8-4.5c1.2-1.2,2.6-2.2,4.3-2.9c1.7-0.7,3.5-1,5.6-1
				c1,0,1.9,0.1,2.8,0.2c0.8,0.1,1.6,0.4,2.4,0.6c0.7,0.3,1.4,0.7,2.1,1.1c0.6,0.4,1.3,0.9,1.9,1.5l-0.6,0.9
				C23.5,23,23.3,23,23.1,23c-0.1,0-0.3-0.1-0.4-0.2c-0.2-0.1-0.4-0.3-0.7-0.5c-0.3-0.2-0.6-0.4-1-0.7c-0.4-0.2-0.9-0.5-1.4-0.7
				c-0.5-0.2-1.2-0.4-1.9-0.5c-0.7-0.1-1.5-0.2-2.5-0.2c-1.7,0-3.3,0.3-4.7,0.9c-1.4,0.6-2.6,1.4-3.7,2.5c-1,1.1-1.8,2.4-2.4,3.9
				c-0.6,1.5-0.9,3.3-0.9,5.2c0,2,0.3,3.7,0.8,5.3c0.6,1.6,1.3,2.9,2.3,3.9c1,1.1,2.2,1.9,3.5,2.5c1.4,0.6,2.8,0.9,4.4,0.9
				c1,0,1.9-0.1,2.7-0.2c0.8-0.1,1.5-0.3,2.2-0.6c0.7-0.3,1.3-0.6,1.8-1c0.5-0.4,1.1-0.8,1.7-1.3c0.1-0.1,0.1-0.1,0.2-0.1
				C23.2,42.1,23.3,42,23.4,42z"/>
			<path class="st0" d="M40.5,46.7c-0.4,0-0.6-0.2-0.7-0.5l-0.3-2.5c-0.5,0.5-1.1,1-1.6,1.4c-0.5,0.4-1.1,0.8-1.7,1.1
				c-0.6,0.3-1.2,0.5-1.9,0.7C33.6,47,32.9,47,32.1,47c-0.7,0-1.3-0.1-1.9-0.3c-0.6-0.2-1.2-0.5-1.7-0.9c-0.5-0.4-0.9-0.9-1.2-1.6
				c-0.3-0.7-0.4-1.4-0.4-2.3c0-0.8,0.2-1.6,0.7-2.3c0.5-0.7,1.2-1.3,2.2-1.9c1-0.5,2.3-0.9,3.9-1.3c1.6-0.3,3.5-0.5,5.7-0.6v-2
				c0-1.8-0.4-3.2-1.2-4.2c-0.8-1-2-1.5-3.5-1.5c-0.9,0-1.8,0.1-2.4,0.4c-0.7,0.3-1.2,0.6-1.7,0.9c-0.5,0.3-0.8,0.6-1.1,0.9
				c-0.3,0.3-0.5,0.4-0.7,0.4c-0.3,0-0.5-0.1-0.6-0.3l-0.3-0.6c1-1,2.1-1.8,3.2-2.3c1.1-0.5,2.4-0.8,3.9-0.8c1.1,0,2,0.2,2.8,0.5
				c0.8,0.3,1.4,0.8,1.9,1.5c0.5,0.6,0.9,1.4,1.2,2.3c0.3,0.9,0.4,1.9,0.4,3v12.8H40.5z M32.6,45.7c0.7,0,1.5-0.1,2.1-0.2
				c0.7-0.2,1.2-0.4,1.8-0.7c0.6-0.3,1.1-0.6,1.5-1.1c0.5-0.4,0.9-0.8,1.4-1.3v-5.1c-1.9,0-3.5,0.2-4.8,0.4
				c-1.3,0.2-2.5,0.5-3.3,0.9c-0.9,0.4-1.5,0.9-1.9,1.4c-0.4,0.5-0.6,1.2-0.6,1.9c0,0.7,0.1,1.2,0.3,1.7c0.2,0.5,0.5,0.9,0.9,1.2
				c0.3,0.3,0.8,0.5,1.2,0.7C31.6,45.6,32.1,45.7,32.6,45.7z"/>
			<path class="st0" d="M45.2,46.7V27.1h1c0.3,0,0.5,0.2,0.6,0.5l0.2,3c0.9-1.1,1.9-2,3.1-2.7c1.2-0.7,2.5-1,4-1
				c1.1,0,2,0.2,2.8,0.5c0.8,0.3,1.5,0.8,2,1.5c0.5,0.7,1,1.4,1.2,2.3c0.3,0.9,0.4,1.9,0.4,3.1v12.5h-1.9V34.2
				c0-1.8-0.4-3.3-1.3-4.3c-0.8-1-2.1-1.6-3.9-1.6c-1.3,0-2.5,0.3-3.6,1c-1.1,0.7-2.1,1.6-3,2.7v14.7H45.2z"/>
			<path class="st0" d="M64.5,46.7V27.1h1c0.3,0,0.5,0.2,0.6,0.5l0.2,3c0.9-1.1,1.9-2,3.1-2.7c1.2-0.7,2.5-1,4-1
				c1.1,0,2,0.2,2.8,0.5c0.8,0.3,1.5,0.8,2,1.5c0.5,0.7,0.9,1.4,1.2,2.3c0.3,0.9,0.4,1.9,0.4,3.1v12.5H78V34.2
				c0-1.8-0.4-3.3-1.3-4.3c-0.8-1-2.1-1.6-3.9-1.6c-1.3,0-2.5,0.3-3.6,1c-1.1,0.7-2.1,1.6-2.9,2.7v14.7H64.5z"/>
			<path class="st0" d="M96.4,46.7c-0.4,0-0.6-0.2-0.7-0.5l-0.3-2.5c-0.5,0.5-1.1,1-1.6,1.4c-0.5,0.4-1.1,0.8-1.7,1.1
				c-0.6,0.3-1.2,0.5-1.9,0.7C89.5,47,88.8,47,88,47c-0.7,0-1.3-0.1-2-0.3c-0.6-0.2-1.2-0.5-1.7-0.9c-0.5-0.4-0.9-0.9-1.2-1.6
				c-0.3-0.7-0.4-1.4-0.4-2.3c0-0.8,0.2-1.6,0.7-2.3c0.5-0.7,1.2-1.3,2.2-1.9c1-0.5,2.3-0.9,3.9-1.3c1.6-0.3,3.5-0.5,5.7-0.6v-2
				c0-1.8-0.4-3.2-1.2-4.2c-0.8-1-1.9-1.5-3.5-1.5c-1,0-1.8,0.1-2.4,0.4c-0.7,0.3-1.2,0.6-1.7,0.9c-0.5,0.3-0.8,0.6-1.1,0.9
				c-0.3,0.3-0.5,0.4-0.7,0.4c-0.3,0-0.5-0.1-0.6-0.3l-0.3-0.6c1-1,2.1-1.8,3.2-2.3c1.1-0.5,2.4-0.8,3.8-0.8c1,0,2,0.2,2.7,0.5
				c0.8,0.3,1.5,0.8,2,1.5c0.5,0.6,0.9,1.4,1.2,2.3c0.3,0.9,0.4,1.9,0.4,3v12.8H96.4z M88.5,45.7c0.8,0,1.5-0.1,2.1-0.2
				c0.6-0.2,1.2-0.4,1.8-0.7c0.5-0.3,1-0.6,1.5-1.1c0.5-0.4,0.9-0.8,1.4-1.3v-5.1c-1.9,0-3.5,0.2-4.8,0.4c-1.3,0.2-2.5,0.5-3.3,0.9
				c-0.9,0.4-1.5,0.9-1.9,1.4c-0.4,0.5-0.6,1.2-0.6,1.9c0,0.7,0.1,1.2,0.3,1.7c0.2,0.5,0.5,0.9,0.9,1.2c0.4,0.3,0.8,0.5,1.2,0.7
				C87.5,45.6,88,45.7,88.5,45.7z"/>
			<path class="st0" d="M99.9,45.2c0-0.2,0.1-0.5,0.1-0.7c0.1-0.2,0.2-0.4,0.4-0.6c0.2-0.2,0.4-0.3,0.6-0.4c0.2-0.1,0.5-0.1,0.7-0.1
				c0.2,0,0.5,0.1,0.7,0.1c0.2,0.1,0.4,0.2,0.6,0.4c0.2,0.2,0.3,0.4,0.4,0.6c0.1,0.2,0.1,0.5,0.1,0.7c0,0.3-0.1,0.5-0.1,0.7
				c-0.1,0.2-0.2,0.4-0.4,0.6c-0.2,0.2-0.4,0.3-0.6,0.4c-0.2,0.1-0.5,0.2-0.7,0.2c-0.5,0-1-0.2-1.3-0.5
				C100.1,46.2,99.9,45.7,99.9,45.2z"/>
			<path class="st0" d="M107.1,46.7V18.1h1.9l0,12.5c0.9-1.2,1.9-2.1,3-2.7c1.1-0.7,2.4-1,3.9-1c2.4,0,4.3,0.8,5.6,2.5
				c1.3,1.7,2,4.2,2,7.5c0,1.4-0.2,2.8-0.5,4c-0.4,1.2-0.9,2.3-1.7,3.2c-0.7,0.9-1.6,1.6-2.7,2.1c-1.1,0.5-2.3,0.8-3.7,0.8
				c-1.4,0-2.6-0.3-3.5-0.8c-1-0.5-1.8-1.3-2.5-2.4l-0.1,2.4c0,0.3-0.2,0.5-0.5,0.5H107.1z M115.3,28.3c-1.3,0-2.5,0.3-3.5,1
				c-1.1,0.7-2,1.6-2.8,2.8v10.3c0.7,1.1,1.6,1.9,2.5,2.4c0.9,0.5,2,0.7,3.1,0.7c1.2,0,2.2-0.2,3-0.6c0.9-0.4,1.6-1,2.2-1.8
				c0.6-0.8,1-1.7,1.3-2.8c0.3-1.1,0.5-2.3,0.5-3.5c0-2.9-0.5-5.1-1.6-6.4C118.8,29,117.3,28.3,115.3,28.3z"/>
			<path class="st0" d="M128.8,27.1v19.6H127V27.1H128.8z"/>
			<path class="st0" d="M146.9,27.9c0,0.3-0.1,0.5-0.3,0.7l-12.3,16.6h12.1v1.5h-14.3V46c0-0.2,0.1-0.5,0.3-0.7l12.3-16.7h-12v-1.5
				h14.2V27.9z"/>
		</g>
	</g>
</g>
<g>
	<g>
		<path class="st0" d="M293.4,22.2v2.1H293v-4.8h1.2c0.5,0,1,0.1,1.2,0.3c0.3,0.2,0.4,0.5,0.4,0.9c0,0.2,0,0.3-0.1,0.5
			c-0.1,0.1-0.2,0.3-0.3,0.4c-0.1,0.1-0.3,0.2-0.4,0.3c-0.2,0.1-0.4,0.1-0.6,0.1c0.1,0,0.1,0.1,0.1,0.1l1.6,2.1H296c0,0-0.1,0-0.1,0
			c0,0-0.1,0-0.1-0.1l-1.5-1.9c0,0-0.1-0.1-0.1-0.1c0,0-0.1,0-0.2,0H293.4z M293.4,22h0.8c0.2,0,0.4,0,0.6-0.1
			c0.2-0.1,0.3-0.1,0.4-0.2c0.1-0.1,0.2-0.2,0.3-0.3c0.1-0.1,0.1-0.3,0.1-0.4c0-0.3-0.1-0.6-0.3-0.8c-0.2-0.2-0.5-0.2-1-0.2h-0.9V22
			z"/>
	</g>
	<path class="st0" d="M294.4,17.9c-2.3,0-4.1,1.8-4.1,4.1s1.8,4.1,4.1,4.1c2.3,0,4.1-1.8,4.1-4.1S296.7,17.9,294.4,17.9z
		 M294.4,25.8c-2.1,0-3.8-1.7-3.8-3.8s1.7-3.8,3.8-3.8c2.1,0,3.8,1.7,3.8,3.8S296.5,25.8,294.4,25.8z"/>
</g>
</svg>
